<svg width="50" height="50" viewBox="0 0 50 50" fill="none" xmlns="http://www.w3.org/2000/svg">
<path d="M31.9347 9.38325C31.1579 9.07167 25.9516 7.5909 24.3204 9.92867C24.3204 9.92867 23.6985 10.4741 24.7091 11.7994C24.7091 11.7994 25.486 10.3186 26.5741 10.1625C26.7722 10.1343 27.0466 10.1218 27.3666 10.118L27.5066 8.99331L27.7866 10.118C29.2304 10.1312 31.2629 10.2578 32.0128 10.0848C32.0128 10.0848 31.4691 10.4741 29.4485 10.5524L29.526 12.5786L28.8591 10.5713C28.0129 10.5963 27.3529 10.6245 26.6729 10.8885L26.8066 13.4356L26.1516 11.1361C25.6754 11.4051 25.1641 11.8094 24.5535 12.4225C24.5535 12.4225 25.2529 14.4487 27.1954 14.371C29.1379 14.2933 33.256 11.0195 33.8778 9.14941C33.8772 9.14941 32.7116 9.69546 31.9347 9.38325Z" fill="black"/>
<path d="M26.8104 2.27202C26.0223 2.55474 21.1448 4.90556 21.4673 7.74095C21.4673 7.74095 21.3623 8.5628 22.9936 8.88376C22.9936 8.88376 22.5973 7.25825 23.3092 6.41885C23.4386 6.2659 23.6361 6.07407 23.8729 5.85905L23.2354 4.92374L24.1879 5.58008C25.2779 4.63035 26.8842 3.37471 27.3317 2.74657C27.3317 2.74657 27.1817 3.39978 25.7198 4.80087L27.1167 6.26715L25.2911 5.20709C24.6742 5.78821 24.1979 6.24772 23.8629 6.89779L25.6454 8.71701L23.6361 7.43002C23.4573 7.94845 23.3411 8.59038 23.2886 9.45548C23.2886 9.45548 25.1511 10.5086 26.5542 9.15896C27.9579 7.80991 28.8804 2.62119 28.1104 0.807618C28.111 0.806364 27.5985 1.98929 26.8104 2.27202Z" fill="black"/>
<path d="M49.8061 20.4203C49.7286 18.2381 47.2417 15.8998 46.1542 14.6529C45.0667 13.406 42.8911 12.8607 40.9486 12.8607C39.0061 12.8607 37.9961 14.4975 37.9961 14.4975C37.9961 14.4975 40.7936 13.796 41.5705 14.0298C42.3474 14.2636 46.2324 16.9135 47.7867 19.7972C49.3405 22.6809 47.6311 24.707 46.8542 26.1877C46.0774 27.6684 42.8136 28.0584 40.0942 27.8245C37.3749 27.5907 35.8986 26.1877 35.2768 24.9408C34.6549 23.694 34.733 21.434 34.733 21.434L27.7399 26.6554C28.3618 27.7462 30.848 28.6815 32.7124 28.8376C34.5774 28.9937 37.0636 30.0845 37.763 30.5521C38.4624 31.0198 37.2968 31.6429 37.2968 31.6429C34.888 30.24 29.4493 28.6038 28.3612 28.6038C27.2737 28.6038 22.1449 22.3687 20.7468 20.3426C19.3481 18.3165 19.9699 16.6797 19.9699 15.2767C19.9699 13.8737 21.9124 9.82148 21.9124 9.82148C21.9124 9.82148 21.5237 7.87311 18.8824 9.97758C16.7412 11.6834 14.6006 15.3864 13.6175 20.2141C14.6012 19.2919 15.4637 18.4726 15.4637 18.4726L13.44 21.1933C13.3025 22.0252 13.1962 22.8846 13.1325 23.7717C13.0843 24.4469 13.0631 25.0775 13.0625 25.6724L14.7637 24.3171L13.0693 26.2592C13.125 28.5323 13.5118 30.2224 14.0037 31.5934L15.3074 29.5385L14.5125 32.8497C14.9237 33.7637 15.3525 34.5429 15.6956 35.3052C16.3049 36.6581 17.7424 38.3287 19.0262 39.6734L21.0568 37.9545L20.0618 40.7272C20.6193 41.2808 21.0724 41.7108 21.2899 41.9296C22.0668 42.7088 20.9793 43.0987 20.9793 43.0987C17.4049 41.6964 12.9762 33.0459 12.9762 33.0459C12.9762 33.0459 9.01372 33.3575 7.14873 30.5521C5.28373 27.7468 6.60498 24.2394 7.61498 22.2132C8.62497 20.1871 7.61498 20.7325 7.61498 20.7325C7.61498 20.7325 5.74998 21.0441 5.20623 21.2779C4.66248 21.5118 1.39875 25.4085 0.932497 25.8762C0.466248 26.3438 0.388749 27.1231 0.388749 27.1231L1.70937 25.9539C1.70937 25.9539 1.32062 27.1231 0.776872 28.1361C0.233124 29.1492 0 31.1753 0 31.1753L1.16562 29.5385V34.526C0.776872 36.8643 1.16562 37.6435 1.16562 37.6435L1.94249 34.2144C1.94249 34.2144 1.94249 36.8643 1.94249 37.7213C1.94249 38.5782 3.96249 42.5533 5.90498 45.8263C7.84747 49.0993 20.5124 49.4893 23.1543 49.1777C25.7649 48.8699 33.7605 44.1482 37.848 40.4263L34.1105 40.9943L39.3955 38.8083C40.1086 37.9601 40.7792 37.0235 41.393 36.0738L38.3836 37.3313C38.4936 37.258 40.1692 36.2694 41.913 35.2438C43.8774 32.0222 45.143 28.9147 45.143 28.9147C45.143 28.9147 48.0955 27.2779 49.2611 25.5633C50.4273 23.8494 49.8836 22.6025 49.8061 20.4203Z" fill="black"/>
<path d="M39.3943 17.8004C39.7806 17.8004 40.0937 17.4864 40.0937 17.0991C40.0937 16.7117 39.7806 16.3977 39.3943 16.3977C39.0081 16.3977 38.6949 16.7117 38.6949 17.0991C38.6949 17.4864 39.0081 17.8004 39.3943 17.8004Z" fill="black"/>
<path d="M44.8339 23.2559C45.2629 23.2559 45.6107 22.907 45.6107 22.4767C45.6107 22.0464 45.2629 21.6975 44.8339 21.6975C44.4048 21.6975 44.057 22.0464 44.057 22.4767C44.057 22.907 44.4048 23.2559 44.8339 23.2559Z" fill="black"/>
<path d="M39.3948 27.1525C40.4048 27.2302 44.2123 27.0748 45.2998 26.5287C46.3873 25.9833 47.7861 24.3465 47.4755 22.8658C47.1648 21.3851 46.3098 18.2675 44.3673 17.0206C42.4248 15.7737 40.9486 15.15 40.1717 15.15C39.3948 15.15 38.0736 15.0722 37.4523 15.8515C37.4523 15.8515 36.5973 16.3969 36.2092 18.7352C35.8205 21.0735 35.3542 22.8658 36.0536 24.3465C36.753 25.8279 38.3848 27.0748 39.3948 27.1525ZM39.9386 16.1637C41.1042 17.1767 41.0261 17.956 40.638 18.5797C40.2492 19.2035 39.783 19.7489 39.783 19.7489L39.2392 19.905L38.5398 19.4373L38.2292 19.905L38.3848 21.6973C38.3848 21.6973 39.1617 23.4896 40.2498 23.6457C41.3373 23.8018 42.1148 23.8018 42.1148 23.4896C42.1148 23.1774 41.8817 22.5542 42.4255 22.0866C42.9692 21.6189 44.6786 20.7619 45.223 21.229C45.7667 21.6966 46.3886 24.1904 45.8448 24.7358C45.3011 25.2812 45.3786 25.2035 44.9123 24.7358C44.4461 24.2682 43.4361 22.1637 43.4361 22.1637C43.4361 22.1637 42.5811 22.1637 42.5811 22.8652C42.5811 23.5667 43.1248 23.956 42.348 24.2682C41.5711 24.5797 39.318 24.1121 38.9292 23.7228C38.5405 23.3328 37.9967 22.5536 37.9192 21.7744C37.8417 20.9951 37.5305 20.2159 37.7636 19.7483C37.9967 19.2806 38.3073 18.423 38.6186 18.8129C38.9292 19.2022 39.2405 19.7483 39.6286 19.3583C40.0173 18.969 40.2505 18.3453 40.2505 18.3453C40.2505 18.3453 38.6186 18.0337 37.5311 17.0984C37.5298 17.099 38.773 15.1506 39.9386 16.1637ZM41.8036 22.2427L41.1042 22.9442C41.1042 22.9442 39.8611 22.7103 39.1617 21.6973C38.4623 20.6842 39.8611 20.2165 39.8611 20.2165C40.9486 20.7619 41.8036 22.2427 41.8036 22.2427Z" fill="black"/>
</svg>
